<svg width="120" height="35" viewBox="0 0 120 35" fill="none" xmlns="http://www.w3.org/2000/svg">
<path d="M21.4612 21.4734L20.9756 19.6333C20.2303 19.8291 19.4891 20.0413 18.752 20.2562C18.3893 19.024 17.9963 17.8027 17.5729 16.5923C15.5073 10.729 12.7021 5.15317 9.22504 0L7.64605 1.06626C11.0335 6.08501 13.7657 11.516 15.7763 17.2274C16.1933 18.4161 16.5791 19.6156 16.9336 20.826C13.7142 21.8745 10.5722 23.1469 7.53045 24.6341L12.757 14.1483L11.0543 13.2997L4.66216 26.1124C3.07819 26.9765 1.52413 27.8991 0 28.8801L1.03226 30.4808C1.72587 30.0329 2.42673 29.5982 3.13485 29.1766L0.724891 34.0087L2.43172 34.852L6.10378 27.4956C9.73663 25.5546 13.5324 23.9354 17.4477 22.6566C18.4983 26.6532 19.1986 30.7338 19.5408 34.852L21.4448 34.686C21.0889 30.4317 20.3607 26.2167 19.2688 22.0895C19.9942 21.8746 20.7267 21.6692 21.4666 21.4734H21.4612Z" fill="#1D1D1B"/>
<path d="M99.6035 13.4406L96.1477 17.2786L96.1151 17.3099L96.1504 17.3411L100.305 21.4675H101.656L97.4288 17.2704L100.885 13.4365L99.6035 13.4406ZM94.9346 21.4715H95.994V13.4406H94.9346V21.4715Z" fill="#1D1D1B"/>
<path d="M87.5954 17.4585C87.5914 16.6335 87.915 15.8407 88.4952 15.2542C89.0753 14.6677 89.8645 14.3354 90.6894 14.3304C91.3946 14.3252 92.0919 14.4791 92.7295 14.7806V13.664C92.077 13.4206 91.3859 13.2971 90.6894 13.2995C90.1365 13.2895 89.5871 13.3898 89.0734 13.5945C88.5596 13.7992 88.0918 14.1042 87.6972 14.4917C87.3026 14.8792 86.9892 15.3414 86.7753 15.8514C86.5614 16.3613 86.4512 16.9088 86.4512 17.4619C86.4512 18.0149 86.5614 18.5624 86.7753 19.0723C86.9892 19.5823 87.3026 20.0445 87.6972 20.432C88.0918 20.8196 88.5596 21.1246 89.0734 21.3292C89.5871 21.5339 90.1365 21.6342 90.6894 21.6242C91.3859 21.6266 92.077 21.5031 92.7295 21.2597V20.1445C92.0917 20.4454 91.3946 20.5992 90.6894 20.5947C89.8645 20.5896 89.0753 20.2574 88.4952 19.6709C87.915 19.0844 87.5914 18.2916 87.5954 17.4666V17.4585Z" fill="#1D1D1B"/>
<path d="M29.4916 21.4716H30.5796L31.6051 19.3704H35.3506L36.3747 21.4716H37.4627L33.4765 13.2979L29.4902 21.4716H29.4916ZM33.4778 15.531L34.8854 18.4183H32.0688L33.4778 15.531Z" fill="#1D1D1B"/>
<path d="M45.9938 10.0143L45.5028 9.19824C44.0925 10.0533 42.9225 11.2528 42.1028 12.684L42.931 13.1559C43.6704 11.8656 44.7258 10.7845 45.9979 10.0143H45.9938ZM45.5749 13.2946L39.871 19.1604V13.4402H38.8115V21.6153L44.5141 15.7508V21.4711H45.5749V13.2946Z" fill="#1D1D1B"/>
<path d="M77.9735 17.4574C77.9738 16.6339 77.7298 15.8288 77.2725 15.144C76.8152 14.4592 76.165 13.9254 75.4042 13.6101C74.6435 13.2949 73.8063 13.2123 72.9987 13.3729C72.191 13.5335 71.4491 13.93 70.8668 14.5123C70.2845 15.0946 69.888 15.8365 69.7274 16.6442C69.5668 17.4518 69.6494 18.289 69.9646 19.0498C70.2799 19.8105 70.8137 20.4607 71.4985 20.918C72.1833 21.3753 72.9884 21.6193 73.8119 21.619C74.9155 21.6187 75.9738 21.1801 76.7542 20.3997C77.5346 19.6193 77.9732 18.561 77.9735 17.4574ZM76.9059 17.4574C76.8992 18.0678 76.712 18.6626 76.368 19.167C76.024 19.6713 75.5385 20.0626 74.9725 20.2915C74.4066 20.5205 73.7856 20.577 73.1877 20.4538C72.5897 20.3306 72.0416 20.0332 71.6123 19.5992C71.183 19.1652 70.8917 18.6138 70.775 18.0146C70.6583 17.4153 70.7216 16.795 70.9567 16.2316C71.1919 15.6682 71.5884 15.187 72.0965 14.8485C72.6045 14.51 73.2014 14.3293 73.8119 14.3293C74.6367 14.3347 75.4257 14.6671 76.0057 15.2535C76.5858 15.8399 76.9095 16.6325 76.9059 17.4574Z" fill="#1D1D1B"/>
<path d="M67.9545 15.51C67.9545 14.286 66.8978 13.2931 65.5935 13.2931C64.922 13.2876 64.2562 13.418 63.6364 13.6767V14.7565C63.6592 14.7403 63.6828 14.7253 63.7072 14.7116C64.2667 14.4069 64.8967 14.2549 65.5337 14.271C66.3048 14.271 66.9304 14.8504 66.9304 15.5644C66.9304 16.2784 66.3048 16.8564 65.5337 16.8564H64.7843V17.8084H65.8723C66.6979 17.8084 67.3683 18.434 67.3683 19.2065C67.3683 19.979 66.6434 20.6033 65.7499 20.6033C64.7408 20.6033 63.8608 20.3163 63.3984 19.892V21.0194C64.114 21.4217 64.9236 21.6268 65.7445 21.6138C67.2119 21.6138 68.402 20.5897 68.402 19.3276C68.402 18.3252 67.858 17.5595 67.0705 17.2358C67.3418 17.0366 67.5629 16.7769 67.7164 16.4773C67.8698 16.1778 67.9514 15.8465 67.9545 15.51Z" fill="#1D1D1B"/>
<path d="M52.0265 17.1119C52.2365 16.9177 52.4043 16.6824 52.5194 16.4206C52.6345 16.1588 52.6945 15.876 52.6956 15.59C52.6956 14.4014 51.6715 13.4385 50.4067 13.4385H47.9668V21.4694H51.1533C52.4698 21.4544 53.532 20.448 53.532 19.2104C53.5236 18.7486 53.3744 18.3003 53.1044 17.9256C52.8344 17.5508 52.4564 17.2674 52.021 17.1133L52.0265 17.1119ZM51.6389 15.6227C51.6389 15.7847 51.607 15.9451 51.545 16.0947C51.483 16.2444 51.3921 16.3804 51.2776 16.4949C51.163 16.6095 51.027 16.7003 50.8774 16.7623C50.7277 16.8243 50.5673 16.8562 50.4053 16.8562H49.0317V14.3905H50.4067C50.5686 14.3903 50.729 14.4221 50.8786 14.4839C51.0283 14.5457 51.1643 14.6365 51.2788 14.7509C51.3934 14.8653 51.4843 15.0012 51.5463 15.1508C51.6083 15.3004 51.6402 15.4607 51.6402 15.6227H51.6389ZM52.5106 19.1587C52.5106 19.5183 52.3683 19.8632 52.1147 20.118C51.8611 20.3729 51.5169 20.517 51.1574 20.5188H49.0317V17.8082H51.1588C51.5183 17.81 51.8625 17.9541 52.1161 18.209C52.3696 18.4638 52.512 18.8087 52.512 19.1683L52.5106 19.1587Z" fill="#1D1D1B"/>
<path d="M119.319 9.67017L118.492 9.19824C117.753 10.4888 116.697 11.57 115.425 12.3399L115.914 13.1559C117.325 12.3008 118.495 11.1014 119.315 9.67017H119.319ZM118.901 13.2946L113.197 19.1604V13.4402H112.138V21.6153L117.84 15.7508V21.4711H118.901V13.2946Z" fill="#1D1D1B"/>
<path d="M54.3379 21.4716H55.4259L56.45 19.3704H60.2009L61.225 21.4716H62.3131L58.3268 13.2979L54.3406 21.4716H54.3379ZM58.3241 15.531L59.7317 18.4183H56.9151L58.3241 15.531Z" fill="#1D1D1B"/>
<path d="M83.854 17.1119C84.064 16.9177 84.2318 16.6824 84.347 16.4206C84.4621 16.1588 84.5221 15.876 84.5232 15.59C84.5232 14.4014 83.4991 13.4385 82.2329 13.4385H79.7998V21.4694H82.9863C84.3015 21.4544 85.365 20.448 85.365 19.2104C85.3566 18.7486 85.2074 18.3003 84.9374 17.9256C84.6674 17.5508 84.2894 17.2674 83.854 17.1133V17.1119ZM83.4678 15.6227C83.4674 15.95 83.3372 16.2637 83.1056 16.495C82.8741 16.7263 82.5602 16.8562 82.2329 16.8562H80.8593V14.3905H82.2356C82.3976 14.3903 82.558 14.422 82.7078 14.4839C82.8575 14.5457 82.9936 14.6364 83.1082 14.7508C83.2229 14.8652 83.3139 15.0011 83.3761 15.1507C83.4382 15.3003 83.4703 15.4607 83.4705 15.6227H83.4678ZM84.3409 19.1587C84.3409 19.5194 84.1976 19.8654 83.9426 20.1204C83.6875 20.3755 83.3416 20.5188 82.9809 20.5188H80.8593V17.8082H82.9863C83.347 17.8082 83.693 17.9515 83.948 18.2066C84.2031 18.4616 84.3464 18.8076 84.3464 19.1683L84.3409 19.1587Z" fill="#1D1D1B"/>
<path d="M109.741 13.293L104.037 19.1574V13.4371H102.977V21.6136L108.68 15.7492V21.4694H109.741V13.293Z" fill="#1D1D1B"/>
<path d="M38.9719 26.8203H37.9111V34.8444H38.9719V26.8203Z" fill="#1D1D1B"/>
<path d="M46.766 27.7723V26.8203H40.79V27.7723H43.2476V34.8444H44.3084V27.7723H46.766Z" fill="#1D1D1B"/>
<path d="M53.8014 26.8145L51.4336 30.3247H51.4254L49.0577 26.8145H47.8037L50.8991 31.4032V34.8454H51.9599V31.4032L55.0553 26.8145H53.8014Z" fill="#1D1D1B"/>
<path d="M30.5689 30.8334C30.565 30.0085 30.8886 29.2157 31.4687 28.6292C32.0488 28.0427 32.838 27.7104 33.663 27.7054C34.3682 27.7003 35.0654 27.8542 35.703 28.1555V27.0417C35.0508 26.7971 34.3596 26.6731 33.663 26.6758C32.5721 26.6955 31.5325 27.1427 30.768 27.9212C30.0035 28.6996 29.5752 29.7471 29.5752 30.8382C29.5752 31.9292 30.0035 32.9767 30.768 33.7552C31.5325 34.5336 32.5721 34.9808 33.663 35.0005C34.3594 35.003 35.0505 34.8796 35.703 34.636V33.5195C35.0654 33.8208 34.3682 33.9746 33.663 33.9696C32.838 33.9646 32.0488 33.6323 31.4687 33.0458C30.8886 32.4593 30.565 31.6665 30.5689 30.8416V30.8334Z" fill="#1D1D1B"/>
</svg>
