<svg width="24" height="32" viewBox="0 0 24 32" fill="none" xmlns="http://www.w3.org/2000/svg">
<path d="M12 1C11.2572 0.442867 10.3738 0.103596 9.44903 0.0202058C8.52422 -0.0631841 7.59446 0.112602 6.76393 0.527866C5.9334 0.943131 5.23492 1.58147 4.74675 2.37135C4.25857 3.16123 4 4.07144 4 5V8H2C1.46957 8 0.96086 8.21072 0.585787 8.58579C0.210714 8.96086 0 9.46957 0 10V26C0 27.5913 0.632141 29.1174 1.75736 30.2426C2.88258 31.3679 4.4087 32 6 32H19C20.3261 32 21.5979 31.4732 22.5355 30.5355C23.4732 29.5979 24 28.3261 24 27V10C24 9.46957 23.7893 8.96086 23.4142 8.58579C23.0391 8.21072 22.5304 8 22 8H20V5C20 4.07144 19.7414 3.16123 19.2533 2.37135C18.7651 1.58147 18.0666 0.943131 17.2361 0.527866C16.4055 0.112602 15.4758 -0.0631841 14.551 0.0202058C13.6262 0.103596 12.7428 0.442867 12 1ZM6 5C6 4.20435 6.31607 3.44129 6.87868 2.87868C7.44129 2.31607 8.20435 2 9 2C9.79565 2 10.5587 2.31607 11.1213 2.87868C11.6839 3.44129 12 4.20435 12 5V8H6V5ZM13.334 2.504C13.7858 2.2023 14.3111 2.02895 14.8537 2.00245C15.3964 1.97596 15.936 2.09733 16.4151 2.35359C16.8941 2.60985 17.2946 2.99139 17.5737 3.45748C17.8529 3.92357 18.0002 4.45672 18 5V8H14V5C14 4.092 13.758 3.24 13.334 2.504ZM6 30C4.93913 30 3.92172 29.5786 3.17157 28.8284C2.42143 28.0783 2 27.0609 2 26V10H14V27C14 28.126 14.372 29.164 15 30H6ZM22 27C22 27.7957 21.6839 28.5587 21.1213 29.1213C20.5587 29.6839 19.7956 30 19 30C18.2044 30 17.4413 29.6839 16.8787 29.1213C16.3161 28.5587 16 27.7957 16 27V10H22V27Z" fill="#232C4F"/>
</svg>
