<svg width="39" height="40" viewBox="0 0 39 40" fill="none" xmlns="http://www.w3.org/2000/svg">
<path d="M0 37.2415H38.6207V40.0001H0V37.2415Z" fill="#232C4F"/>
<path d="M31.0348 13.7932H8.2762C7.54479 13.7939 6.84355 14.0848 6.32637 14.602C5.80918 15.1192 5.51831 15.8204 5.51758 16.5518V27.5863C5.51977 29.4147 6.24707 31.1676 7.53995 32.4605C8.83283 33.7534 10.5857 34.4807 12.4141 34.4829H23.4486C25.277 34.4807 27.0299 33.7534 28.3228 32.4605C29.6157 31.1676 30.343 29.4147 30.3452 27.5863V26.207H31.0348C32.681 26.207 34.2597 25.5531 35.4238 24.389C36.5878 23.225 37.2417 21.6463 37.2417 20.0001C37.2417 18.3539 36.5878 16.7752 35.4238 15.6112C34.2597 14.4472 32.681 13.7932 31.0348 13.7932ZM27.5865 27.5863C27.5854 28.6834 27.1491 29.7353 26.3734 30.5111C25.5976 31.2868 24.5457 31.7232 23.4486 31.7242H12.4141C11.317 31.7232 10.2652 31.2868 9.48938 30.5111C8.71361 29.7353 8.27729 28.6834 8.2762 27.5863V16.5518H27.5865V27.5863ZM31.0348 23.4484H30.3452V16.5518H31.0348C31.9494 16.5518 32.8264 16.9151 33.4731 17.5618C34.1198 18.2085 34.4831 19.0856 34.4831 20.0001C34.4831 20.9146 34.1198 21.7917 33.4731 22.4384C32.8264 23.0851 31.9494 23.4484 31.0348 23.4484Z" fill="#232C4F"/>
<path d="M23.4486 11.0345H20.69V10.8331C20.692 10.3204 20.5502 9.81748 20.2808 9.38131C20.0114 8.94513 19.6251 8.59322 19.1658 8.36552L15.4624 6.51586C14.544 6.06007 13.7717 5.35616 13.233 4.4839C12.6942 3.61164 12.4105 2.60591 12.4141 1.58069V0H15.1727V1.58069C15.171 2.09328 15.3129 2.59612 15.5823 3.03223C15.8516 3.46834 16.2377 3.82031 16.6969 4.04828L20.3989 5.89793C21.3174 6.35366 22.0899 7.05752 22.6289 7.92976C23.1679 8.80201 23.4519 9.80777 23.4486 10.8331V11.0345Z" fill="#232C4F"/>
</svg>
