<svg width="30" height="29" viewBox="0 0 30 29" fill="none" xmlns="http://www.w3.org/2000/svg">
<path d="M15 0C13.575 0 12.6225 1.023 12.0945 1.923C11.553 2.8515 11.25 3.984 11.25 4.875C11.25 5.616 11.3445 6.636 11.898 7.494C12.513 8.445 13.557 9 15 9C16.443 9 17.487 8.445 18.102 7.494C18.657 6.636 18.75 5.616 18.75 4.875C18.75 3.984 18.447 2.85 17.9055 1.923C17.379 1.023 16.425 0 15 0ZM13.5 4.875C13.5 4.41 13.6815 3.6675 14.037 3.06C14.409 2.424 14.7675 2.25 15 2.25C15.2325 2.25 15.591 2.424 15.963 3.06C16.3185 3.6675 16.5 4.41 16.5 4.875C16.5 5.49 16.407 5.97 16.2105 6.273C16.0755 6.483 15.8055 6.75 15 6.75C14.193 6.75 13.9245 6.483 13.7895 6.273C13.5945 5.97 13.5 5.49 13.5 4.875Z" fill="#373737"/>
<path d="M27.75 13.8757V26.2507H28.875C29.1734 26.2507 29.4595 26.3693 29.6705 26.5802C29.8815 26.7912 30 27.0774 30 27.3757C30 27.6741 29.8815 27.9603 29.6705 28.1712C29.4595 28.3822 29.1734 28.5007 28.875 28.5007H1.125C0.826631 28.5007 0.540483 28.3822 0.329505 28.1712C0.118526 27.9603 0 27.6741 0 27.3757C0 27.0774 0.118526 26.7912 0.329505 26.5802C0.540483 26.3693 0.826631 26.2507 1.125 26.2507H2.25V13.8757C2.25 12.9806 2.60558 12.1222 3.23851 11.4892C3.87145 10.8563 4.72989 10.5007 5.625 10.5007H24.375C25.2701 10.5007 26.1285 10.8563 26.7615 11.4892C27.3944 12.1222 27.75 12.9806 27.75 13.8757ZM4.5 13.8757V17.0122L8.1705 19.3822C8.4736 19.5779 8.82672 19.682 9.1875 19.682C9.54828 19.682 9.9014 19.5779 10.2045 19.3822L12.825 17.6902C13.4711 17.2736 14.2207 17.0459 14.9893 17.0326C15.7579 17.0194 16.515 17.2212 17.175 17.6152L20.1885 19.4137C20.4993 19.5993 20.8571 19.691 21.2188 19.6777C21.5806 19.6644 21.9307 19.5467 22.227 19.3387L25.5 17.0407V13.8757C25.5 13.5774 25.3815 13.2912 25.1705 13.0802C24.9595 12.8693 24.6734 12.7507 24.375 12.7507H5.625C5.32663 12.7507 5.04048 12.8693 4.8295 13.0802C4.61853 13.2912 4.5 13.5774 4.5 13.8757ZM23.52 21.1807C22.8681 21.6383 22.0978 21.8973 21.3019 21.9266C20.506 21.9558 19.7187 21.7541 19.035 21.3457L16.023 19.5457C15.7228 19.3664 15.3784 19.2746 15.0288 19.2807C14.6792 19.2868 14.3383 19.3906 14.0445 19.5802L11.424 21.2722C10.7574 21.7024 9.98085 21.9312 9.1875 21.9312C8.39415 21.9312 7.61762 21.7024 6.951 21.2722L4.5 19.6897V26.2507H25.5V19.7902L23.52 21.1792V21.1807Z" fill="#373737"/>
</svg>
