<svg width="12" height="10" viewBox="0 0 12 10" fill="none" xmlns="http://www.w3.org/2000/svg">
<path d="M10.5672 3.69014L9.76563 1.01841C9.58287 0.409109 9.03286 0 8.39704 0H3.03153C2.39572 0 1.8457 0.40911 1.66294 1.01841L0.861421 3.69014C0.355309 3.91009 0 4.41376 0 5V7.85714C0 8.25161 0.319824 8.57143 0.714286 8.57143H0.714329L0.714286 9.28567C0.714286 9.68018 1.03407 10 1.42857 10H2.1429C2.53736 10 2.85719 9.68018 2.85719 9.28571L2.85688 8.57143H8.57143L8.57139 9.28567C8.57139 9.68018 8.89117 10 9.28567 10H10C10.3945 10 10.7143 9.68018 10.7143 9.28571V8.57147L10.714 8.57143H10.7143C11.1087 8.57143 11.4286 8.2516 11.4286 7.85714V5C11.4286 4.41376 11.0733 3.91008 10.5672 3.69014L10.5672 3.69014ZM3.03151 1.42857H8.39702L9.0399 3.57143H2.38863L3.03151 1.42857H3.03151ZM2.85712 6.78572C2.46262 6.78572 2.14284 6.46589 2.14284 6.07143C2.14284 5.67692 2.46262 5.35714 2.85712 5.35714C3.25163 5.35714 3.57141 5.67692 3.57141 6.07143C3.57141 6.46589 3.25163 6.78572 2.85712 6.78572ZM8.57141 6.78572C8.1769 6.78572 7.85712 6.46589 7.85712 6.07143C7.85712 5.67692 8.1769 5.35714 8.57141 5.35714C8.96591 5.35714 9.28569 5.67692 9.28569 6.07143C9.28569 6.46589 8.96591 6.78572 8.57141 6.78572Z" fill="#323232"/>
</svg>
