<?xml version="1.0" standalone="no"?>
<!DOCTYPE svg PUBLIC "-//W3C//DTD SVG 20010904//EN"
 "http://www.w3.org/TR/2001/REC-SVG-20010904/DTD/svg10.dtd">
<svg version="1.0" xmlns="http://www.w3.org/2000/svg"
 width="475.000000pt" height="500.000000pt" viewBox="0 0 475.000000 500.000000"
 preserveAspectRatio="xMidYMid meet">
<metadata>
Created by potrace 1.16, written by Peter Selinger 2001-2019
</metadata>
<g transform="translate(0.000000,500.000000) scale(0.100000,-0.100000)"
fill="#333333" stroke="none">
<path d="M2205 3679 c-270 -39 -496 -157 -691 -361 -99 -103 -152 -180 -216
-313 -150 -316 -150 -694 1 -1011 63 -132 116 -209 215 -313 233 -243 529
-371 862 -371 328 0 626 129 860 371 98 102 151 179 216 314 154 324 150 704
-11 1030 -72 143 -129 222 -248 335 -177 171 -378 272 -622 314 -100 17 -267
19 -366 5z m440 -138 c168 -47 335 -138 462 -255 137 -126 259 -330 310 -521
23 -89 26 -118 26 -265 0 -147 -3 -176 -26 -265 -51 -191 -171 -392 -309 -521
-126 -116 -295 -209 -468 -256 -74 -20 -108 -23 -265 -23 -157 0 -191 3 -265
23 -385 105 -675 395 -777 779 -23 87 -26 117 -26 263 0 147 3 176 26 265 109
408 434 711 852 794 28 5 124 8 215 7 132 -3 181 -8 245 -25z"/>
<path d="M2340 3390 c-19 -19 -20 -33 -20 -460 l0 -440 28 -29 c50 -54 506
-391 529 -391 27 0 57 42 49 68 -4 10 -116 101 -251 203 l-245 184 0 423 c0
409 -1 423 -20 442 -11 11 -27 20 -35 20 -8 0 -24 -9 -35 -20z"/>
</g>
</svg>
