<svg width="31" height="29" viewBox="0 0 31 29" fill="none" xmlns="http://www.w3.org/2000/svg">
<path d="M6.25 4.1035C6.25 4.04425 6.29425 3.994 6.35275 3.9865L22.0615 1.96C26.0065 1.45 29.5 4.52275 29.5 8.5C29.5 12.4772 26.0058 15.5492 22.0615 15.04L6.35275 13.0135C6.32432 13.0098 6.29819 12.9959 6.27927 12.9744C6.26036 12.9529 6.24995 12.9252 6.25 12.8965V4.1035Z" stroke="#373737" stroke-width="2"/>
<path d="M6.25 4L1 1V16L6.25 13" stroke="#373737" stroke-width="2" stroke-linecap="round" stroke-linejoin="round"/>
<path d="M26.5001 13.75L21.4796 25.6735C21.1892 26.363 20.7018 26.9515 20.0785 27.3653C19.4553 27.7792 18.7237 27.9999 17.9756 28V28C15.2568 28 13.4171 25.2288 14.4716 22.723L18.2501 13.75" stroke="#373737" stroke-width="2"/>
<path d="M22.5 15C26.0899 15 29 12.0899 29 8.5C29 4.91015 26.0899 2 22.5 2C18.9101 2 16 4.91015 16 8.5C16 12.0899 18.9101 15 22.5 15Z" stroke="#373737" stroke-width="2"/>
</svg>
