<svg width="30" height="24" viewBox="0 0 30 24" fill="none" xmlns="http://www.w3.org/2000/svg">
<path d="M20.6999 11.781L29.6861 3.58025C29.7888 3.48647 29.8693 3.37095 29.9217 3.24212C29.9741 3.11328 29.9971 2.97438 29.9891 2.83553C29.981 2.69667 29.9421 2.56137 29.8751 2.43946C29.8081 2.31756 29.7148 2.21214 29.6019 2.13087L27.5073 0.634729C26.9178 0.21822 26.2091 0.00402533 25.4876 0.0242558C24.766 0.0444863 24.0704 0.298052 23.5052 0.746939L13.0509 9.08792L10.0025 6.7315C10.4097 5.52964 10.3538 4.2191 9.84587 3.05623C9.33791 1.89337 8.41438 0.961847 7.25594 0.443879C6.0975 -0.0740891 4.78749 -0.141237 3.58216 0.255569C2.37683 0.652376 1.3629 1.48459 0.738705 2.58942C0.114507 3.69425 -0.0750504 4.99221 0.207113 6.22941C0.489276 7.46661 1.22286 8.55403 2.26437 9.27897C3.30587 10.0039 4.58037 10.3142 5.83856 10.1492C7.09675 9.98413 8.2481 9.35563 9.06741 8.3866L11.5173 10.2568L7.55257 13.4828C6.4291 12.8783 5.1205 12.7145 3.8827 13.0236C2.64491 13.3328 1.56694 14.0925 0.859625 15.1543C0.152309 16.2161 -0.133481 17.5036 0.0581478 18.7649C0.249777 20.0262 0.905041 21.1707 1.89579 21.9745C2.88654 22.7784 4.14151 23.1837 5.41526 23.1112C6.68902 23.0388 7.88994 22.4938 8.78316 21.5828C9.67638 20.6719 10.1977 19.4605 10.245 18.1855C10.2924 16.9106 9.8625 15.6638 9.03936 14.6891L24.6647 2.20568C24.9134 2.00914 25.219 1.89838 25.5359 1.88995C25.8528 1.88152 26.1638 1.97588 26.4226 2.15892L27.5728 2.9818L17.932 11.7903L27.5728 20.5801L26.4226 21.403C26.1638 21.5861 25.8528 21.6804 25.5359 21.672C25.219 21.6636 24.9134 21.5528 24.6647 21.3563L15.4915 14.0158L14.0982 15.2875L23.5052 22.7682C24.0713 23.2193 24.7686 23.4742 25.4922 23.4944C26.2157 23.5147 26.9263 23.2992 27.5167 22.8805L29.6113 21.3843C29.7242 21.3031 29.8175 21.1976 29.8845 21.0757C29.9514 20.9538 29.9904 20.8185 29.9984 20.6797C30.0065 20.5408 29.9835 20.4019 29.9311 20.2731C29.8786 20.1442 29.7982 20.0287 29.6954 19.9349L20.6999 11.781ZM5.1681 8.37725C4.5278 8.3791 3.90135 8.19092 3.36806 7.83654C2.83477 7.48216 2.41863 6.97751 2.17231 6.38648C1.926 5.79545 1.86059 5.14463 1.98437 4.51641C2.10815 3.88818 2.41556 3.31082 2.86766 2.8574C3.31977 2.40399 3.89624 2.09491 4.5241 1.96932C5.15196 1.84372 5.80297 1.90724 6.39471 2.15184C6.98645 2.39645 7.4923 2.81113 7.84823 3.34339C8.20415 3.87565 8.39415 4.50155 8.39415 5.14185C8.39415 5.99831 8.05456 6.81984 7.44983 7.42633C6.84509 8.03281 6.02456 8.37478 5.1681 8.37725ZM5.1681 21.2067C4.5278 21.2085 3.90135 21.0203 3.36806 20.6659C2.83477 20.3116 2.41863 19.8069 2.17231 19.2159C1.926 18.6249 1.86059 17.974 1.98437 17.3458C2.10815 16.7176 2.41556 16.1402 2.86766 15.6868C3.31977 15.2334 3.89624 14.9243 4.5241 14.7987C5.15196 14.6731 5.80297 14.7366 6.39471 14.9812C6.98645 15.2258 7.4923 15.6405 7.84823 16.1728C8.20415 16.705 8.39415 17.3309 8.39415 17.9713C8.39415 18.8277 8.05456 19.6492 7.44983 20.2557C6.84509 20.8622 6.02456 21.2042 5.1681 21.2067Z" fill="#373737"/>
</svg>
