<svg width="48" height="48" viewBox="0 0 48 48" fill="none" xmlns="http://www.w3.org/2000/svg">
<circle cx="24" cy="24" r="24" fill="#003457"/>
<path d="M23.9641 23.6221C23.9641 23.7072 24.0066 23.7923 24.0226 23.8827C24.0383 23.9222 24.0401 23.9659 24.0275 24.0065C24.0149 24.0472 23.9888 24.0823 23.9535 24.106C23.8365 23.9996 23.8418 23.8401 23.9535 23.6221L23.8205 23.6753C23.7707 23.7007 23.7166 23.7169 23.661 23.7232C23.6676 23.706 23.6765 23.6899 23.6876 23.6753C23.7302 23.6115 23.794 23.569 23.7886 23.4626C23.7833 23.3563 23.879 23.3031 23.9428 23.2127L24.0864 23.4307C24.0864 23.4307 24.0864 23.4786 24.0864 23.4839C24.0864 23.4892 24.0864 23.5796 24.1236 23.6168L24.214 23.7338C24.0811 23.7338 24.0173 23.6487 23.9322 23.6168L23.9641 23.6221ZM39.7714 13.8124C39.6815 13.698 39.6131 13.5683 39.5694 13.4295C39.5311 13.2943 39.4458 13.1771 39.3288 13.0991C39.2119 13.0211 39.0709 12.9875 38.9313 13.0042C38.7454 13.0147 38.564 13.0655 38.3996 13.1531C38.1232 13.2913 37.8679 13.4508 37.5915 13.6156C37.315 13.7805 37.1608 13.9081 36.9481 14.0623C36.9235 14.087 36.8915 14.103 36.8569 14.1078C36.8223 14.1126 36.7871 14.106 36.7567 14.0888C36.6475 14.0445 36.5357 14.0072 36.4217 13.9772C36.2289 13.919 36.0259 13.9027 35.8262 13.9293C35.7491 13.936 35.6762 13.9676 35.6186 14.0195C35.5611 14.0713 35.5219 14.1404 35.5072 14.2164C35.4879 14.2801 35.4487 14.336 35.3956 14.376L34.614 15.0406C34.5236 15.1203 34.4226 15.1841 34.3268 15.2533C34.3694 15.1735 34.4172 15.0991 34.4545 15.014C34.4897 14.9411 34.5164 14.8644 34.5342 14.7854C34.5342 14.7003 34.5342 14.6578 34.4226 14.6524C34.3368 14.6534 34.2514 14.6623 34.1673 14.679C34.0769 14.679 33.9919 14.7269 33.8802 14.7588L34.1301 14.3653V14.3334C34.0663 14.3334 33.9972 14.3653 33.9334 14.3919L32.7371 14.9236C32.6772 14.9521 32.615 14.9753 32.551 14.9927C32.1046 15.1251 31.6387 15.1791 31.1739 15.1522H30.9293L31.2217 15.4447L31.0463 15.5935C30.8925 15.7462 30.6924 15.8434 30.4774 15.87C30.3187 15.9043 30.1637 15.9542 30.0148 16.0189L29.8819 16.0774L29.8659 16.0561V16.0295C29.7809 15.9179 29.7277 15.9126 29.6426 16.0295C29.5575 16.1465 29.5522 16.189 29.5044 16.2688L29.3608 16.5559C29.3608 16.6091 29.297 16.641 29.2385 16.5931C29.2385 16.7367 29.2385 16.8802 29.2013 17.0238C29.1879 17.2343 29.1337 17.4401 29.0418 17.6299C28.9567 17.7788 28.8344 17.7841 28.7494 17.6299C28.6887 17.5198 28.6439 17.4017 28.6164 17.279C28.6164 17.1886 28.6164 17.0929 28.5792 16.9866L28.425 17.0876C28.2868 17.1727 28.1485 17.2631 28.005 17.3428C27.9495 17.3804 27.8858 17.4043 27.8193 17.4126C27.7528 17.421 27.6852 17.4134 27.6222 17.3907L27.5211 17.7363V17.8054C27.3882 17.8054 27.4148 17.9277 27.3829 17.9968C27.2447 18.353 27.1224 18.7093 26.9788 19.0602C26.8823 19.3021 26.7496 19.528 26.5854 19.7301C26.5144 19.8317 26.4218 19.9163 26.3142 19.9779C26.2067 20.0395 26.0868 20.0765 25.9633 20.0864C26.0537 20.1608 26.16 20.2299 26.2451 20.315C26.3202 20.3854 26.3733 20.4762 26.3979 20.5763C26.4224 20.6763 26.4174 20.7814 26.3833 20.8786C26.3361 21.0149 26.2577 21.1384 26.1543 21.239C26.0509 21.3396 25.9254 21.4147 25.7878 21.4581C25.5486 21.5379 25.4316 21.4209 25.4582 21.1976C25.4582 21.1976 25.4582 21.1498 25.4582 21.1338C25.4419 21.0916 25.4223 21.0507 25.3997 21.0115H25.3625C25.3599 21.054 25.3599 21.0966 25.3625 21.1391C25.3625 21.272 25.3625 21.405 25.3625 21.5379C25.3625 21.6708 25.3625 21.9048 25.3944 22.0696C25.2873 22.0945 25.187 22.1427 25.1007 22.2107C25.0143 22.2787 24.9439 22.3648 24.8946 22.463C24.8694 22.512 24.8614 22.568 24.8721 22.6221C24.8827 22.6761 24.9112 22.725 24.9531 22.7608C25.0225 22.8267 25.1036 22.879 25.1923 22.915C25.2872 22.9457 25.3854 22.9653 25.4848 22.9735V23.0532C25.4848 23.0532 25.4529 23.0532 25.4475 23.0532C25.3146 23.0532 25.187 23.0001 25.0541 22.9735C24.9788 22.9444 24.8954 22.9444 24.8201 22.9735C24.7576 22.9993 24.691 23.0137 24.6234 23.016C24.6553 23.1064 24.5702 23.1489 24.533 23.2021C24.3735 23.2021 24.2938 22.9841 24.1183 23.0958C24.0385 23.016 24.0385 23.016 23.9109 23.0958C23.8525 23.016 23.794 23.0585 23.7461 23.0958C23.6892 23.1533 23.614 23.189 23.5334 23.1968C23.4749 23.133 23.3952 23.0851 23.443 23.0054C23.3723 23.0005 23.3026 22.9862 23.2357 22.9628C23.1986 22.9473 23.1589 22.9394 23.1187 22.9394C23.0785 22.9394 23.0388 22.9473 23.0017 22.9628L22.6136 23.0426C22.6136 23.0426 22.6136 23.0426 22.5764 23.0426C22.5738 23.0125 22.5738 22.9823 22.5764 22.9522H22.704C22.8475 22.9375 22.982 22.8758 23.0868 22.7767C23.1354 22.7364 23.1684 22.6802 23.1801 22.6181C23.1917 22.556 23.1813 22.4917 23.1506 22.4365C23.0439 22.253 22.8706 22.1178 22.6668 22.059C22.6668 22.0058 22.6668 21.942 22.6668 21.8729C22.6668 21.6442 22.6934 21.4103 22.7093 21.1817C22.7198 21.1073 22.7028 21.0317 22.6615 20.969C22.6322 21.0167 22.6107 21.0687 22.5977 21.1232C22.5977 21.1551 22.5977 21.1923 22.5977 21.2295C22.5977 21.405 22.5073 21.4847 22.3318 21.4581C22.2718 21.45 22.214 21.4301 22.1617 21.3996C22.0528 21.3411 21.9526 21.2677 21.8639 21.1817C21.7864 21.123 21.7239 21.0466 21.6818 20.959C21.6396 20.8713 21.619 20.7749 21.6216 20.6777C21.6242 20.5805 21.6499 20.4853 21.6967 20.4C21.7435 20.3147 21.8099 20.2418 21.8905 20.1874L22.0394 20.0864C21.9093 20.0912 21.7802 20.063 21.664 20.0044C21.5478 19.9458 21.4483 19.8588 21.3748 19.7514C21.276 19.6404 21.192 19.5171 21.1249 19.3845C20.9919 19.1187 20.8696 18.8528 20.758 18.5763C20.6463 18.2999 20.5985 18.1244 20.5187 17.8958C20.5049 17.8646 20.4889 17.8344 20.4709 17.8054C20.3964 17.8692 20.4071 17.7788 20.3964 17.7575C20.3592 17.6352 20.322 17.513 20.2901 17.3907C20.2448 17.4195 20.1923 17.4349 20.1386 17.4349C20.0849 17.4349 20.0323 17.4195 19.987 17.3907C19.8009 17.295 19.6308 17.1886 19.4553 17.0823L19.3171 16.9866C19.3229 17.0485 19.3229 17.1108 19.3171 17.1727C19.2923 17.3117 19.2568 17.4486 19.2108 17.5821C19.1842 17.6671 19.131 17.7469 19.03 17.7469C18.929 17.7469 18.8705 17.6565 18.8439 17.5714C18.7985 17.4305 18.763 17.2866 18.7375 17.1408C18.7056 16.9653 18.7003 16.7845 18.6791 16.6091C18.5834 16.6516 18.5568 16.5825 18.5249 16.5293C18.4451 16.3804 18.376 16.2209 18.2909 16.0774C18.2058 15.9338 18.1314 15.9232 18.0251 16.0774L17.8762 16.0083C17.7315 15.9446 17.5798 15.8982 17.4243 15.87C17.2809 15.8488 17.1431 15.7993 17.019 15.7245C16.8949 15.6497 16.7868 15.5509 16.7012 15.434C16.765 15.3171 16.8979 15.2745 16.9404 15.1522H16.765C16.1498 15.2001 15.533 15.0826 14.9785 14.8119C14.8562 14.7428 14.7286 14.6897 14.6063 14.6312L13.9895 14.3547C13.9623 14.3411 13.9322 14.334 13.9018 14.334C13.8713 14.334 13.8413 14.3411 13.814 14.3547L14.0533 14.7269C13.9934 14.7362 13.9324 14.7362 13.8725 14.7269C13.7695 14.701 13.6646 14.6832 13.5588 14.6737C13.4259 14.6737 13.3781 14.7375 13.4206 14.8598C13.4631 14.9821 13.5163 15.0618 13.5641 15.1682C13.585 15.2038 13.6028 15.2412 13.6173 15.2798C13.5219 15.2445 13.4336 15.1923 13.3568 15.1256L12.4848 14.3813C12.4558 14.3541 12.4355 14.3189 12.4263 14.2803C12.4118 14.1826 12.3612 14.0939 12.2843 14.0318C12.2075 13.9698 12.1101 13.9389 12.0116 13.9453C11.7502 13.93 11.4891 13.9793 11.2513 14.0888C11.1923 14.1159 11.1268 14.1253 11.0626 14.1159C10.9984 14.1065 10.9384 14.0786 10.8897 14.0357C10.5441 13.7911 10.1932 13.5571 9.82633 13.3285C9.61384 13.1955 9.38001 13.1002 9.13513 13.0467C9.04787 13.0178 8.95547 13.0078 8.86404 13.0173C8.77262 13.0269 8.68426 13.0557 8.60483 13.1019C8.5254 13.1482 8.4567 13.2108 8.4033 13.2856C8.34989 13.3604 8.31299 13.4457 8.29505 13.5359C8.27018 13.6281 8.22473 13.7136 8.16212 13.7858C8.07733 13.8795 8.02283 13.9967 8.00575 14.1219C7.98868 14.2471 8.00982 14.3746 8.06642 14.4876C8.0991 14.5684 8.14393 14.6437 8.19934 14.7109C8.33796 14.8814 8.49094 15.0398 8.6566 15.1841C8.92245 15.3915 9.18829 15.567 9.48604 15.7584L9.61365 15.8434C9.5986 15.8502 9.58229 15.8537 9.5658 15.8537C9.54931 15.8537 9.533 15.8502 9.51795 15.8434L9.06601 15.6892C9.03671 15.675 9.0032 15.672 8.97183 15.6808C8.94046 15.6896 8.91343 15.7097 8.89586 15.7371C8.80748 15.8386 8.74702 15.9614 8.7204 16.0933C8.6659 16.33 8.66334 16.5756 8.71291 16.8134C8.76247 17.0511 8.86298 17.2753 9.00752 17.4704C9.04286 17.5246 9.09086 17.5694 9.14736 17.6009C9.20387 17.6324 9.26718 17.6496 9.33185 17.6512L9.21488 17.9011C9.14172 18.0241 9.08115 18.1541 9.0341 18.2892C9.00755 18.3438 8.99299 18.4035 8.99141 18.4642C8.98983 18.5249 9.00126 18.5852 9.02493 18.6411C9.04861 18.697 9.08397 18.7472 9.12866 18.7883C9.17334 18.8294 9.22631 18.8605 9.284 18.8794C9.37929 18.9177 9.47697 18.9496 9.57643 18.9751C9.64024 18.9751 9.70404 18.9751 9.76784 19.023C10.0443 19.1187 10.2995 19.2303 10.592 19.3154C10.8844 19.4005 11.2566 19.4802 11.5862 19.56C11.6447 19.56 11.7085 19.5919 11.7617 19.5334C11.8149 19.4749 11.7351 19.4749 11.7138 19.4217C11.8787 19.5866 11.8787 19.6929 11.7138 19.8152C11.6165 19.8901 11.5113 19.9543 11.4001 20.0066C11.2087 20.1076 11.012 20.1927 10.8206 20.2937C10.721 20.3439 10.6281 20.4064 10.5441 20.4798C10.5132 20.4975 10.4875 20.523 10.4696 20.5538C10.4517 20.5846 10.4423 20.6196 10.4423 20.6553C10.4423 20.6909 10.4517 20.7259 10.4696 20.7567C10.4875 20.7875 10.5132 20.8131 10.5441 20.8307C10.6326 20.9006 10.7269 20.9629 10.8259 21.0168C10.911 21.061 10.9897 21.1164 11.0599 21.1817C11.2153 21.3674 11.3804 21.5448 11.5543 21.7134C11.8496 22.0355 12.2349 22.2615 12.6603 22.362C12.7772 22.3939 12.8995 22.4258 13.0112 22.4684C13.2132 22.5375 13.2664 22.6279 13.2239 22.8299C13.2239 22.9043 13.2239 22.9575 13.2824 22.9841C13.3937 23.0462 13.5138 23.0911 13.6386 23.117C13.8304 23.1456 14.0242 23.1581 14.2181 23.1542C14.381 23.1511 14.5425 23.1838 14.6913 23.2499C14.7924 23.2925 14.803 23.3457 14.7286 23.4307L14.6275 23.5264C14.5903 23.5636 14.5478 23.6009 14.5106 23.6434C14.4884 23.6613 14.4705 23.684 14.4582 23.7098C14.4458 23.7355 14.4395 23.7637 14.4395 23.7923C14.4395 23.8208 14.4458 23.849 14.4582 23.8748C14.4705 23.9005 14.4884 23.9232 14.5106 23.9412C14.5815 23.9991 14.6561 24.0524 14.7339 24.1007L14.8296 24.1698C14.6382 24.324 14.6169 24.3825 14.6648 24.5579C14.6846 24.6194 14.7076 24.6797 14.7339 24.7387C14.7339 24.7812 14.7711 24.8238 14.7924 24.8823L14.6382 24.8504C14.6712 24.9018 14.7013 24.9551 14.7286 25.0099C14.7654 25.0747 14.7847 25.148 14.7847 25.2225C14.7847 25.2971 14.7654 25.3704 14.7286 25.4352C14.6685 25.5462 14.5815 25.6404 14.4756 25.7092C14.3697 25.7779 14.2483 25.819 14.1224 25.8287C13.931 25.8287 13.8725 25.7542 13.9523 25.5735C13.9523 25.5735 13.9842 25.5309 13.9842 25.5097C13.9897 25.4798 13.9897 25.4491 13.9842 25.4193C13.851 25.6762 13.7373 25.9428 13.6439 26.2168C13.5277 26.2083 13.4118 26.2382 13.3143 26.3019C13.2633 26.3252 13.2202 26.3627 13.19 26.4098C13.1597 26.4569 13.1436 26.5117 13.1436 26.5677C13.1436 26.6237 13.1597 26.6785 13.19 26.7257C13.2202 26.7728 13.2633 26.8102 13.3143 26.8336L13.4312 26.9027C13.394 26.9878 13.3621 27.0675 13.3249 27.1473L13.4312 27.2323C13.1707 27.1632 12.9899 27.2323 12.9474 27.3812C13.1175 27.3812 13.2504 27.2908 13.4206 27.243L13.5482 27.5088C13.628 27.5088 13.7077 27.4716 13.7875 27.4663C14.0055 27.4663 14.0958 27.5673 14.032 27.7694C13.9985 27.8596 13.9538 27.9453 13.8991 28.0246C13.8093 28.1254 13.7535 28.2519 13.7396 28.3861L13.8566 28.4127C13.8566 28.4712 13.8832 28.551 13.9204 28.5722C13.9576 28.5935 14.032 28.5722 14.0799 28.5722C14.1171 28.7477 14.1596 28.9178 14.1915 29.1039C14.2245 29.2424 14.2494 29.3826 14.266 29.524C14.2774 29.6045 14.2625 29.6865 14.2235 29.7579C14.1862 29.8217 14.1012 29.8536 14.032 29.8961L14.2288 29.9599C14.2873 29.9599 14.367 29.9599 14.4095 30.0769L14.2447 30.162C14.1543 30.2098 14.0586 30.2471 13.9682 30.3002C13.8548 30.3634 13.7685 30.4658 13.7254 30.5882C13.6823 30.7106 13.6855 30.8446 13.7343 30.9648C13.7343 31.0233 13.7821 31.0871 13.8087 31.1456L13.8619 31.2679L13.5695 31.3796C13.3355 31.47 13.3196 31.5125 13.4844 31.7092C13.6492 31.9059 13.8247 32.0974 14.0161 32.2728C14.2586 32.5099 14.4409 32.8016 14.5478 33.1235V33.1554C14.7035 33.555 14.8227 33.9679 14.904 34.389C14.904 34.4209 14.904 34.4475 14.9412 34.474C14.9731 34.2348 15.005 33.9902 15.0423 33.7562C15.3772 33.7084 15.4995 33.7562 15.6165 34.0646C15.6843 34.2739 15.8118 34.4587 15.9834 34.5963C16.0081 34.6125 16.0267 34.6364 16.0364 34.6643C16.046 34.6922 16.0461 34.7226 16.0365 34.7505C16.0287 34.8407 16.0287 34.9315 16.0365 35.0217C16.0365 35.1068 16.0897 35.128 16.1641 35.0961C16.2066 35.0795 16.2461 35.0562 16.2811 35.027L16.5735 34.8037C16.6214 34.7665 16.6746 34.7399 16.7384 34.6973C16.7476 34.746 16.7601 34.7939 16.7756 34.8409L16.8553 34.6973C16.9829 34.4794 17.0999 34.256 17.2328 34.0434C17.2966 33.9423 17.3764 33.8466 17.4508 33.7509C17.5253 33.6552 17.5412 33.634 17.6157 33.6605C17.6901 33.6871 17.6848 33.7669 17.6795 33.836C17.6845 33.9068 17.6845 33.9779 17.6795 34.0487C17.6259 34.415 17.524 34.7726 17.3764 35.1121C17.3646 35.1501 17.3504 35.1874 17.3339 35.2237C17.6901 35.3726 18.0251 35.5215 18.0836 35.9734L18.3813 35.5374C18.3813 35.6916 18.2803 35.8192 18.2962 35.9947C18.3346 35.9775 18.3719 35.958 18.4079 35.9362L18.5887 35.7873C18.7907 35.6331 18.9874 35.4736 19.1948 35.3247C19.2896 35.2667 19.3892 35.2169 19.4926 35.1759C19.567 35.2875 19.6255 35.3832 19.6946 35.4736C19.7582 35.5612 19.8293 35.6431 19.9073 35.7182C20.0402 35.8405 20.1465 35.8086 20.1997 35.6278C20.2276 35.5346 20.2419 35.4379 20.2422 35.3407C20.2422 35.0483 20.2422 34.7505 20.2422 34.4528C20.2422 34.3677 20.2422 34.2879 20.2422 34.2029H20.2741C20.306 34.2986 20.3379 34.3943 20.3752 34.4953C20.3752 34.3092 20.3752 34.1444 20.3752 33.9636C20.3685 33.6564 20.4079 33.3499 20.4921 33.0544C20.5325 32.9223 20.5955 32.7982 20.6782 32.6875C20.703 32.6411 20.7409 32.603 20.7873 32.5781C20.8337 32.5532 20.8864 32.5427 20.9388 32.5478C20.9912 32.5529 21.0409 32.5735 21.0816 32.6069C21.1223 32.6403 21.1521 32.685 21.1674 32.7354C21.2142 32.8322 21.243 32.9367 21.2525 33.0438C21.2632 33.229 21.2208 33.4135 21.1302 33.5755C21.0801 33.6703 21.0686 33.7808 21.0983 33.8839C21.3216 33.4 21.4386 32.8736 21.63 32.3632C21.6269 32.379 21.6269 32.3952 21.63 32.4111C21.6446 32.4493 21.6704 32.4822 21.7041 32.5054C21.7378 32.5286 21.7778 32.541 21.8187 32.541C21.8596 32.541 21.8996 32.5286 21.9333 32.5054C21.967 32.4822 21.9929 32.4493 22.0075 32.4111C22.0432 32.3501 22.0683 32.2836 22.0819 32.2143C22.1609 31.8655 22.1771 31.5054 22.1298 31.1509C22.1146 31.0365 22.1331 30.9201 22.1829 30.816C22.2148 30.7522 22.2361 30.6884 22.268 30.6352C22.3015 30.5931 22.3247 30.5438 22.3358 30.4912C22.3468 30.4386 22.3455 30.3841 22.3318 30.3321C22.324 30.2971 22.324 30.2608 22.3318 30.2258C22.3637 30.3055 22.3797 30.3906 22.4116 30.4704C22.4435 30.5501 22.4754 30.5767 22.5392 30.5501C22.5892 30.5319 22.6308 30.4959 22.6561 30.4491C22.6987 30.364 22.6561 30.2843 22.5551 30.2417C22.498 30.2183 22.4394 30.1987 22.3797 30.1833C22.3963 29.9149 22.4427 29.6492 22.5179 29.391C22.444 29.3515 22.3865 29.2871 22.3554 29.2093C22.3243 29.1315 22.3216 29.0453 22.3478 28.9657C22.4263 28.562 22.6097 28.1861 22.8794 27.8757C23.023 27.6949 23.1506 27.5035 23.2782 27.3121C23.3078 27.2782 23.324 27.2348 23.324 27.1898C23.324 27.1448 23.3078 27.1014 23.2782 27.0675C23.2271 27.0128 23.1937 26.944 23.1823 26.87C23.1709 26.796 23.1821 26.7203 23.2144 26.6528C23.2144 26.589 23.257 26.5252 23.2835 26.4348C23.0602 26.4986 22.9007 26.6475 22.6934 26.7113C22.906 26.2859 23.1878 25.9137 23.4271 25.5097C23.3473 25.5469 23.3154 25.6426 23.2197 25.6798C23.4255 25.2033 23.6822 24.7505 23.9854 24.3293C24.0704 24.4782 24.1608 24.627 24.2459 24.7812C24.3895 25.0311 24.5277 25.3129 24.6713 25.5416C24.6913 25.5867 24.709 25.6329 24.7244 25.6798L24.4639 25.4459C24.486 25.5108 24.5183 25.5718 24.5596 25.6266C24.7457 25.9191 24.9424 26.2115 25.1285 26.5039C25.1674 26.5648 25.2012 26.6289 25.2295 26.6953C25.0115 26.6422 24.8574 26.4827 24.6394 26.4348C24.6713 26.5518 24.7032 26.6528 24.7297 26.7591C24.7437 26.8009 24.7462 26.8457 24.7368 26.8887C24.7275 26.9318 24.7066 26.9715 24.6766 27.0037C24.6537 27.0246 24.6354 27.0501 24.6229 27.0785C24.6104 27.1069 24.6039 27.1375 24.6039 27.1685C24.6039 27.1996 24.6104 27.2302 24.6229 27.2586C24.6354 27.287 24.6537 27.3124 24.6766 27.3334C24.788 27.5191 24.9124 27.6968 25.0488 27.8651C25.2979 28.1487 25.4796 28.4849 25.5805 28.8487C25.6336 29.0614 25.6496 29.2687 25.4263 29.3804C25.5043 29.6327 25.5525 29.8932 25.5698 30.1567L25.3678 30.2311C25.3339 30.2443 25.306 30.2694 25.2893 30.3017C25.2727 30.334 25.2684 30.3713 25.2774 30.4066C25.2839 30.4397 25.3009 30.47 25.3257 30.4929C25.3505 30.5159 25.382 30.5303 25.4156 30.5342C25.4794 30.5342 25.5326 30.497 25.5592 30.4012C25.5858 30.3055 25.5592 30.2736 25.5911 30.2152C25.5729 30.292 25.572 30.372 25.5885 30.4493C25.6051 30.5265 25.6387 30.5991 25.6868 30.6618C25.7134 30.7043 25.7293 30.7522 25.7559 30.8C25.7921 30.878 25.805 30.9648 25.7931 31.0499C25.7506 31.339 25.7506 31.6328 25.7931 31.9219C25.8172 32.0668 25.8546 32.2092 25.9048 32.3473C25.917 32.3903 25.9439 32.4276 25.9808 32.4529C26.0177 32.4781 26.0623 32.4897 26.1068 32.4855C26.1487 32.4866 26.1899 32.4749 26.225 32.4522C26.2601 32.4294 26.2875 32.3965 26.3036 32.3579C26.3634 32.4946 26.4149 32.6349 26.4578 32.7779L26.7715 33.7297C26.7715 33.7775 26.7715 33.8466 26.8672 33.8785C26.8773 33.7677 26.859 33.656 26.814 33.5542C26.7515 33.4428 26.7122 33.3198 26.6985 33.1928C26.6848 33.0658 26.697 32.9373 26.7342 32.8151C26.7466 32.7486 26.7785 32.6873 26.8258 32.639C26.8732 32.5907 26.9338 32.5576 27.0001 32.544C27.1596 32.5174 27.2553 32.6237 27.3297 32.746C27.4193 32.8962 27.4789 33.0623 27.5052 33.2352C27.5682 33.5859 27.5896 33.9428 27.569 34.2986C27.569 34.3517 27.569 34.4049 27.569 34.4581C27.5956 34.3783 27.6275 34.3039 27.6541 34.2241C27.6667 34.273 27.6667 34.3242 27.6541 34.373C27.6541 34.6495 27.6541 34.9047 27.6541 35.2025C27.6545 35.355 27.6741 35.5068 27.7126 35.6544C27.7551 35.8086 27.8614 35.8405 27.9784 35.7342C28.0717 35.6461 28.1571 35.55 28.2336 35.447C28.2921 35.3673 28.3453 35.2822 28.4038 35.1918C28.5983 35.2513 28.7791 35.3489 28.9355 35.4789C29.1109 35.6119 29.2757 35.7607 29.4672 35.899C29.5172 35.9373 29.5706 35.9711 29.6267 36C29.6586 35.8192 29.5469 35.6916 29.5469 35.5321L29.8447 35.9787C29.9031 35.5268 30.2434 35.3726 30.5943 35.229L30.5465 35.0961C30.4158 34.7946 30.3212 34.4787 30.2647 34.155C30.2485 34.0244 30.2485 33.8922 30.2647 33.7616C30.2647 33.6712 30.3285 33.6552 30.4029 33.7084C30.4458 33.7433 30.485 33.7825 30.5199 33.8254C30.5955 33.9181 30.6648 34.0158 30.7273 34.1178C30.8655 34.3517 30.9984 34.5963 31.1314 34.8356C31.1314 34.8356 31.1314 34.8728 31.1686 34.91C31.1686 34.8303 31.1686 34.7824 31.1686 34.7186L31.36 34.8515C31.4504 34.9207 31.5408 35.0004 31.6365 35.0695C31.6577 35.0848 31.6821 35.0951 31.7079 35.0997C31.7337 35.1043 31.7601 35.1031 31.7853 35.0961C31.8027 35.0758 31.8155 35.052 31.8228 35.0263C31.8302 35.0006 31.8319 34.9737 31.8279 34.9472C31.8279 34.8515 31.8279 34.7558 31.7853 34.6495C32.0012 34.4937 32.1629 34.2744 32.2479 34.0221C32.2645 33.9694 32.2918 33.9206 32.328 33.8788C32.3642 33.8371 32.4086 33.8032 32.4585 33.7793C32.5083 33.7553 32.5625 33.7419 32.6178 33.7398C32.673 33.7376 32.7281 33.7469 32.7796 33.7669C32.8056 34.0063 32.8447 34.2442 32.8966 34.4794C32.9211 34.4343 32.9391 34.386 32.9498 34.3358C33.0489 33.8122 33.2132 33.3032 33.4389 32.8205C33.5086 32.672 33.604 32.537 33.7207 32.4217C33.9015 32.2409 34.0823 32.0442 34.2524 31.8581C34.3109 31.7943 34.3694 31.7252 34.4226 31.656C34.4757 31.5869 34.5023 31.47 34.3481 31.4062L34.0025 31.2732C34.045 31.1669 34.0929 31.0765 34.1248 30.9808C34.1762 30.8587 34.1802 30.7217 34.136 30.5968C34.0917 30.4719 34.0024 30.368 33.8855 30.3055C33.7843 30.246 33.6796 30.1928 33.5718 30.146C33.5293 30.146 33.4761 30.1141 33.4549 30.0344L33.8643 29.8855C33.6463 29.843 33.5878 29.7738 33.5878 29.5824C33.5825 29.5258 33.5825 29.4689 33.5878 29.4123L33.7633 28.5935H33.96C33.96 28.5244 33.96 28.4765 33.96 28.4287L34.0982 28.3968C34.0825 28.2656 34.0289 28.1418 33.944 28.0405C33.8896 27.9668 33.8449 27.8864 33.8111 27.8013C33.7313 27.5726 33.8111 27.4557 34.0663 27.4822C34.1416 27.4913 34.2163 27.5055 34.2896 27.5248C34.3428 27.4344 34.3375 27.3121 34.4438 27.2642C34.5927 27.3015 34.7256 27.4184 34.9064 27.3812C34.8001 27.227 34.6671 27.1845 34.4119 27.2323L34.5076 27.1526L34.4066 26.9133C34.4683 26.8793 34.527 26.8402 34.5821 26.7964C34.6212 26.7684 34.6525 26.731 34.6731 26.6876C34.6937 26.6441 34.7028 26.5961 34.6996 26.5482C34.6964 26.5002 34.681 26.4539 34.6548 26.4136C34.6287 26.3733 34.5926 26.3403 34.5502 26.3178C34.439 26.245 34.3106 26.2028 34.178 26.1955C34.0882 25.9259 33.9835 25.6614 33.8643 25.4033C33.7898 25.4778 33.8643 25.5256 33.8643 25.5788C33.9387 25.7489 33.8643 25.8393 33.6941 25.8234C33.5896 25.8137 33.4883 25.7822 33.3967 25.7309C33.3051 25.6796 33.2253 25.6097 33.1624 25.5256C33.0995 25.4536 33.0602 25.364 33.0497 25.2689C33.0393 25.1739 33.0582 25.0779 33.1039 24.9939C33.1039 24.9461 33.1518 24.9035 33.1784 24.8504H33.0348C33.0774 24.744 33.1146 24.6643 33.1465 24.5792C33.1659 24.5455 33.1783 24.5083 33.1829 24.4697C33.1876 24.4312 33.1843 24.392 33.1734 24.3548C33.1624 24.3175 33.144 24.2828 33.1193 24.2528C33.0946 24.2229 33.064 24.1982 33.0295 24.1804L33.0561 24.1485L33.1731 24.0741C33.238 24.0359 33.3001 23.9932 33.3592 23.9465C33.3845 23.9277 33.405 23.9032 33.4192 23.8751C33.4333 23.8469 33.4407 23.8158 33.4407 23.7843C33.4407 23.7528 33.4333 23.7217 33.4192 23.6935C33.405 23.6654 33.3845 23.6409 33.3592 23.6221C33.306 23.5636 33.2422 23.5105 33.1837 23.452C33.1252 23.3935 33.072 23.2712 33.2369 23.218C33.3803 23.1607 33.5345 23.1353 33.6888 23.1436C33.8109 23.1542 33.9336 23.1542 34.0557 23.1436C34.2243 23.1365 34.3893 23.0929 34.5395 23.016C34.5837 22.9992 34.6198 22.9662 34.6405 22.9238C34.6613 22.8813 34.6651 22.8325 34.6512 22.7874C34.6193 22.6013 34.6512 22.5215 34.8479 22.4577C35.0446 22.3939 35.1084 22.378 35.2414 22.3408C35.5072 22.2803 35.7572 22.1643 35.9751 22.0005C36.2738 21.782 36.5436 21.5265 36.778 21.2401C36.8526 21.1367 36.9511 21.0528 37.0651 20.9956C37.1537 20.9555 37.2375 20.9056 37.315 20.8467C37.5011 20.7084 37.5064 20.5596 37.315 20.4213C37.1986 20.3376 37.0759 20.263 36.9481 20.198C36.762 20.1023 36.5653 20.0172 36.3739 19.9109C36.2848 19.8616 36.2026 19.8008 36.1293 19.7301C36.0495 19.6451 36.0549 19.5866 36.1293 19.4696C36.1718 19.5653 36.2463 19.544 36.3207 19.5334C36.9253 19.415 37.5166 19.2369 38.0859 19.0017L38.272 18.9432C38.4184 18.898 38.5622 18.8447 38.7027 18.7837C38.7616 18.7575 38.8119 18.7151 38.8477 18.6615C38.8835 18.6078 38.9032 18.5451 38.9047 18.4806C38.9111 18.3887 38.8985 18.2963 38.8675 18.2095C38.8144 18.0712 38.7399 17.9436 38.6761 17.8107C38.6123 17.6778 38.6176 17.6831 38.5857 17.6087C38.6626 17.5979 38.7359 17.5692 38.7996 17.5249C38.8634 17.4805 38.9158 17.4218 38.9526 17.3535C39.1475 17.0512 39.2475 16.6975 39.2397 16.3379C39.2404 16.1679 39.2003 16.0001 39.1227 15.8488C39.0058 15.6414 38.9739 15.6308 38.7452 15.7105L38.4528 15.8062L38.3146 15.8434C38.407 15.7619 38.5067 15.689 38.6123 15.6254C38.9373 15.4322 39.2388 15.2021 39.5109 14.9396C39.6711 14.7918 39.7965 14.6101 39.8777 14.4079C39.9209 14.3055 39.9348 14.1931 39.9179 14.0833C39.901 13.9735 39.854 13.8705 39.782 13.7858" fill="white"/>
</svg>