<svg width="28" height="28" viewBox="0 0 28 28" fill="none" xmlns="http://www.w3.org/2000/svg">
<path d="M5.55 22.45H1V9.45C1 7.5 2.3 5.225 4.25 3.6C6.2 1.975 10.1 1 10.1 1H17.9C17.9 1 21.8 1.975 23.75 3.6C25.7 5.225 27 7.5 27 9.45V22.45H22.45" stroke="#373737" stroke-width="2" stroke-linecap="round" stroke-linejoin="round"/>
<path d="M17.8969 1C17.8969 2.03434 17.486 3.02632 16.7546 3.75772C16.0232 4.48911 15.0312 4.9 13.9969 4.9C12.9625 4.9 11.9706 4.48911 11.2392 3.75772C10.5078 3.02632 10.0969 2.03434 10.0969 1M22.4469 9.45V27H5.54688V9.45H22.4469Z" stroke="#373737" stroke-width="2" stroke-linecap="round" stroke-linejoin="round"/>
</svg>
