<svg width="26" height="24" viewBox="0 0 26 24" fill="none" xmlns="http://www.w3.org/2000/svg">
<path d="M18.069 4.23816C17.8088 4.23816 17.5593 4.34153 17.3753 4.52553C17.1913 4.70953 17.0879 4.95909 17.0879 5.2193C17.0879 5.47952 17.1913 5.72908 17.3753 5.91308C17.5593 6.09708 17.8088 6.20045 18.069 6.20045C18.5439 6.20045 18.9364 6.34173 19.2209 6.59291C19.4995 6.84212 19.7605 7.27382 19.8351 8.02146C19.848 8.14966 19.886 8.27407 19.947 8.38758C20.0079 8.50109 20.0906 8.60148 20.1904 8.68302C20.2902 8.76457 20.405 8.82566 20.5284 8.86282C20.6518 8.89997 20.7813 8.91247 20.9095 8.89958C21.0377 8.8867 21.1621 8.84869 21.2756 8.78772C21.3891 8.72676 21.4895 8.64403 21.571 8.54427C21.6526 8.44451 21.7137 8.32966 21.7508 8.20629C21.788 8.08291 21.8005 7.95343 21.7876 7.82523C21.6738 6.68121 21.2342 5.7609 20.5258 5.12904C19.8449 4.53903 18.9699 4.22171 18.069 4.23816Z" fill="#373737"/>
<path d="M11.2476 1.40875C10.5463 0.825807 9.72325 0.407553 8.83893 0.184777C7.95462 -0.0379994 7.03161 -0.0596263 6.13783 0.121488C4.53268 0.435455 3.1159 1.32241 2.17596 2.33888L2.17204 2.34476C1.14576 3.47112 0.0959341 4.93499 0.00566868 7.068V7.07193C-0.0335772 8.11979 0.115557 9.64841 0.941682 10.8179L0.953455 10.8317C1.82864 12.0189 2.31725 12.7135 2.56253 13.3846C2.84314 14.1538 2.84314 14.9309 2.84314 16.0867V16.1809C2.85295 17.2994 3.09039 18.8437 3.66142 20.2487C4.22656 21.6341 5.19789 23.0744 6.79912 23.6572L6.83837 23.671L6.88154 23.6827C7.8097 23.93 8.69862 23.8476 9.37365 23.2177C9.96234 22.6682 10.1978 21.8558 10.3312 21.1514C10.4529 20.5019 10.5137 19.7464 10.5746 19.0125L10.5962 18.7358C10.6668 17.8881 10.7473 17.0482 10.9121 16.2594V16.2535C11.3575 14.0891 11.9953 13.7496 12.2406 13.6731C12.9666 13.4867 13.4022 13.5848 13.6848 13.7457C13.9909 13.9203 14.2735 14.2559 14.5188 14.8092C15.0251 15.9572 15.1742 17.5839 15.3115 19.091C15.4293 20.5882 15.7432 21.9657 16.3594 22.8586C16.6832 23.3276 17.1482 23.7436 17.784 23.879C18.4257 24.0183 19.0438 23.8279 19.5795 23.4865C21.53 22.2404 22.6486 19.6679 22.9429 16.3143C23.0803 14.7229 23.2412 14.0126 23.4786 13.4396C23.6003 13.1452 23.7533 12.8626 23.9692 12.4918L24.1772 12.1386C24.3538 11.8442 24.5598 11.4949 24.7855 11.0907L24.7894 11.0887C25.2133 10.3274 25.9118 8.93414 25.9923 7.30151C26.0767 5.59825 25.4821 3.72426 23.4904 2.11125C21.5948 0.572815 19.817 0.005713 18.2177 0.0900916C16.6341 0.172508 15.3685 0.886782 14.4638 1.65011L14.4324 1.67759L14.405 1.70506C13.5455 2.56454 13.1825 2.67639 12.9862 2.66658C12.7468 2.65677 12.3034 2.46446 11.3301 1.48136L11.2908 1.44211L11.2476 1.40875ZM1.966 7.15042C2.02879 5.69243 2.71756 4.65831 3.62021 3.66931C4.30701 2.92757 5.3588 2.27412 6.51263 2.04846C7.11748 1.923 7.74275 1.93474 8.34247 2.0828C8.94218 2.23086 9.50107 2.51148 9.97804 2.90402C10.9003 3.83218 11.8265 4.58178 12.9019 4.62887C14.0204 4.67597 14.9269 3.95384 15.7609 3.12379C16.4418 2.55473 17.3033 2.1034 18.3197 2.04846C19.3362 1.99548 20.6509 2.33495 22.2541 3.63399C23.7435 4.8408 24.0869 6.10648 24.032 7.20536C23.9751 8.369 23.4629 9.43453 23.0763 10.1292C22.8168 10.5916 22.5492 11.0496 22.2738 11.5028C22.0461 11.8952 21.8401 12.2681 21.6654 12.688C21.3122 13.5436 21.1317 14.4972 20.9865 16.1416C20.7137 19.2558 19.713 21.0729 18.5238 21.8323C18.4434 21.8874 18.3546 21.9291 18.2609 21.9559C18.2157 21.9657 18.1981 21.9618 18.1961 21.9618C18.1942 21.9618 18.1765 21.9579 18.1412 21.9324C18.0762 21.8785 18.0199 21.815 17.9744 21.744C17.6604 21.2927 17.3778 20.3468 17.268 18.932V18.9202L17.2542 18.7731C17.1286 17.3798 16.9559 15.4725 16.3143 14.0184C15.9748 13.2473 15.4607 12.4977 14.6542 12.0385C13.8261 11.5675 12.8371 11.489 11.7304 11.7795L11.7147 11.7834L11.7009 11.7873C10.3862 12.17 9.48746 13.4435 8.99297 15.8591C8.7987 16.7794 8.71039 17.7272 8.63975 18.5729L8.62013 18.8476C8.57905 19.4983 8.50636 20.1467 8.40232 20.7903C8.28458 21.4261 8.13348 21.689 8.03144 21.7832V21.7852C8.00986 21.8048 7.90193 21.9147 7.42902 21.7989C6.60878 21.481 5.94749 20.6588 5.48046 19.5089C5.05949 18.443 4.83094 17.3109 4.80543 16.1652V15.9631C4.80543 14.9191 4.80936 13.8183 4.40513 12.7135C4.04603 11.7245 3.36315 10.7924 2.53899 9.67589C2.08374 9.02833 1.93068 8.02756 1.966 7.15042Z" fill="#373737"/>
</svg>
